<svg width="233" height="79.001" viewBox="0 0 233 79.001" xmlns="http://www.w3.org/2000/svg"><g id="svgGroup" stroke-linecap="round" fill-rule="evenodd" font-size="9pt" stroke="#000" stroke-width="0.25mm" fill="#000" style="stroke:#000;stroke-width:0.25mm;fill:#000"><path d="M 172 65.4 L 141.4 65.4 C 141.4 65.4 141.49 64.587 142.615 63.477 A 7.589 7.589 0 0 1 142.8 63.3 L 164.6 43.6 A 33.099 33.099 0 0 0 165.59 42.664 C 170.33 37.983 172 33.325 172 27.7 L 172 18 A 17.924 17.924 0 0 0 154.117 0.001 A 18.737 18.737 0 0 0 154 0 L 140 0 C 130.46 0 122.74 7.554 122.05 15.109 A 12.002 12.002 0 0 0 122 16.2 L 136 19.8 A 6.387 6.387 0 0 1 136.695 16.785 C 137.42 15.413 138.68 14.447 140.327 13.961 A 9.442 9.442 0 0 1 143 13.6 L 151 13.6 A 9.096 9.096 0 0 1 153.911 14.033 C 156.046 14.754 157.393 16.359 157.837 18.735 A 10.148 10.148 0 0 1 158 20.6 L 158 25.6 C 158 28.895 157.114 31.127 154.424 33.796 A 24.65 24.65 0 0 1 153.9 34.3 L 130.6 55.5 A 28.72 28.72 0 0 0 124.159 64.207 C 122.768 67.147 122 70.205 122 73.1 L 122 79 L 172 79 L 172 65.4 Z M 29 65.4 L 21 65.4 A 9.096 9.096 0 0 1 18.09 64.967 C 15.954 64.247 14.607 62.642 14.163 60.265 A 10.148 10.148 0 0 1 14 58.4 L 14 20.6 A 9.096 9.096 0 0 1 14.433 17.69 C 15.154 15.554 16.759 14.207 19.135 13.763 A 10.148 10.148 0 0 1 21 13.6 L 29 13.6 A 8.326 8.326 0 0 1 31.911 14.091 C 34.564 15.077 36 17.424 36 20 L 50 16.5 A 18.061 18.061 0 0 0 34.984 0.236 A 18.779 18.779 0 0 0 32 0 L 18 0 A 17.924 17.924 0 0 0 0.001 17.883 A 18.737 18.737 0 0 0 0 18 L 0 61 A 17.924 17.924 0 0 0 17.883 79 A 18.737 18.737 0 0 0 18 79 L 32 79 A 17.802 17.802 0 0 0 42.195 75.881 A 18.433 18.433 0 0 0 50 62.7 L 36 59.2 A 6.438 6.438 0 0 1 35.263 62.322 C 34.199 64.266 32.025 65.4 29 65.4 Z M 212 65.4 L 204 65.4 A 9.096 9.096 0 0 1 201.09 64.967 C 198.954 64.247 197.607 62.642 197.163 60.265 A 10.148 10.148 0 0 1 197 58.4 L 197 20.6 A 9.096 9.096 0 0 1 197.433 17.69 C 198.154 15.554 199.759 14.207 202.135 13.763 A 10.148 10.148 0 0 1 204 13.6 L 212 13.6 A 8.326 8.326 0 0 1 214.911 14.091 C 217.564 15.077 219 17.424 219 20 L 233 16.5 A 18.061 18.061 0 0 0 217.984 0.236 A 18.779 18.779 0 0 0 215 0 L 201 0 A 17.924 17.924 0 0 0 183.001 17.883 A 18.737 18.737 0 0 0 183 18 L 183 61 A 17.924 17.924 0 0 0 200.883 79 A 18.737 18.737 0 0 0 201 79 L 215 79 A 17.802 17.802 0 0 0 225.195 75.881 A 18.433 18.433 0 0 0 233 62.7 L 219 59.2 A 6.438 6.438 0 0 1 218.263 62.322 C 217.199 64.266 215.025 65.4 212 65.4 Z M 93 0 L 79 0 A 17.924 17.924 0 0 0 61.001 17.883 A 18.737 18.737 0 0 0 61 18 L 61 61 A 17.883 17.883 0 0 0 67.857 75.206 A 18.019 18.019 0 0 0 79 79 L 93 79 A 17.924 17.924 0 0 0 111 61.117 A 18.737 18.737 0 0 0 111 61 L 111 18 A 17.924 17.924 0 0 0 93.117 0.001 A 18.737 18.737 0 0 0 93 0 Z M 90 65.4 L 82 65.4 A 9.096 9.096 0 0 1 79.09 64.967 C 76.954 64.247 75.607 62.642 75.163 60.265 A 10.148 10.148 0 0 1 75 58.4 L 75 20.6 A 9.096 9.096 0 0 1 75.433 17.69 C 76.154 15.554 77.759 14.207 80.135 13.763 A 10.148 10.148 0 0 1 82 13.6 L 90 13.6 A 9.096 9.096 0 0 1 92.911 14.033 C 95.046 14.754 96.393 16.359 96.837 18.735 A 10.148 10.148 0 0 1 97 20.6 L 97 58.4 C 97 62.124 95.209 64.559 91.931 65.219 A 9.782 9.782 0 0 1 90 65.4 Z" vector-effect="non-scaling-stroke"/></g></svg>