<?xml version="1.0" standalone="no"?>
<!DOCTYPE svg PUBLIC "-//W3C//DTD SVG 20010904//EN"
 "http://www.w3.org/TR/2001/REC-SVG-20010904/DTD/svg10.dtd">
<svg version="1.0" xmlns="http://www.w3.org/2000/svg"
 width="329.000000pt" height="329.000000pt" viewBox="0 0 329.000000 329.000000"
 preserveAspectRatio="xMidYMid meet">
<metadata>
Created by potrace 1.14, written by Peter Selinger 2001-2017
</metadata>
<g transform="translate(0.000000,329.000000) scale(0.100000,-0.100000)"
fill="#000000" stroke="none">
<path d="M1520 3254 c-335 -40 -559 -116 -792 -271 -375 -250 -622 -627 -704
-1076 -24 -126 -24 -398 0 -524 82 -449 329 -826 704 -1076 199 -132 425 -218
677 -258 103 -17 377 -17 480 0 718 114 1252 630 1381 1334 24 126 24 398 0
524 -82 449 -329 826 -704 1076 -195 129 -410 213 -652 253 -87 15 -327 26
-390 18z"/>
</g>
</svg>
